<?xml version="1.0" encoding="UTF-8" standalone="no"?>
<!-- Created with Inkscape (http://www.inkscape.org/) -->
<svg id="svg3460" xmlns:rdf="http://www.w3.org/1999/02/22-rdf-syntax-ns#" xmlns="http://www.w3.org/2000/svg" height="900" viewBox="0 0 702.98401 900" width="702.98" version="1.1" xmlns:cc="http://creativecommons.org/ns#" xmlns:dc="http://purl.org/dc/elements/1.1/">
 <metadata id="metadata3466">
  <rdf:RDF>
   <cc:Work rdf:about="">
    <dc:format>image/svg+xml</dc:format>
    <dc:type rdf:resource="http://purl.org/dc/dcmitype/StillImage"/>
    <dc:title/>
   </cc:Work>
  </rdf:RDF>
 </metadata>
 <g fill="#524ed2">
 <path id="path3470" d="m19.627 899.49c-19.557-2.26-26.256-24.58-11.992-39.96l8.4341-9.0957 337.58 0.2677 337.58 0.26769 6.8613 8.472c7.7321 9.5471 6.3127 19.38-4.407 30.531-6.6947 6.9637-12.003 7.1061-294.81 7.9091-158.39 0.44973-306.34 1.2475-328.77 1.7728-22.426 0.52529-45.146 0.45189-50.487-0.16311zm30.537-63.504c-24.292-2.9737-32.587-26.441-15.417-43.612 6.2447-6.2447 11.924-7.0012 52.564-7.0012h45.563l2.0586-46.98c2.0501-46.787 5.7296-63.039 13.565-89.351 25.658-85.53 82.484-134.56 142.03-168.22 30.022-16.421 33.267-19.309 36.598-32.581 2.1521-8.5748 0.56794-9.894-26.565-22.122-112.5-50.71-166.63-139.17-166.63-272.28v-38.611h-42.548c-54.57 0-74.67-17.368-48.525-41.93l8.2063-7.7094h301.79c325.66 0 312.93-0.71942 312.93 17.692 0 21.823-13.921 28.402-60.101 28.402-34.514 0-35.641 0.2505-35.886 7.9778-0.13899 4.3878-0.80529 13.562-1.4806 20.388-0.67531 6.8254-2.1767 28.94-3.3363 49.144-5.0382 87.775-55.97 169.99-139.84 225.72-56.538 37.571-57.219 41.548-10.967 64.057 95.566 46.509 144.27 127.24 148.48 246.12l2.0723 58.504 45.032 0.99105c56.341 1.2399 73.096 13.499 51.588 37.745l-7.9778 8.9935-278.34 1.9391c-153.09 1.0665-286.31 2.4194-296.06 3.0063-9.7506 0.58699-22.717 0.45658-28.814-0.28968zm119.23-68.91c18.193-26.798 53.988-55.825 94.504-76.636 37.034-19.023 61.506-40.554 61.506-54.114 0-3.9573 2.2814-12.655 5.0697-19.328 3.4706-8.3062 5.6944-32.908 7.0501-77.996 1.0893-36.224 2.943-70.203 4.1195-75.508l2.139-9.6458-9.4309 11.504c-5.187 6.3272-26.474 21.441-47.305 33.587-96.158 56.066-138.87 135.69-138.92 258.95-0.0121 33.306 3.7775 34.943 21.264 9.1865zm382.87-28.69c-0.25-114.03-46.65-193.06-145.97-248.59-12.679-7.0903-25.942-16.084-29.474-19.987-12.506-13.819-13.475-8.9533-11.473 57.613 3.4948 116.18 11.494 128.02 134.5 199.14 9.1611 5.2965 23.521 16.661 31.911 25.254 20.211 20.7 20.583 20.457 20.508-13.421zm-161.26-403c14.788-3.0595 102.14-35.25 128.03-47.183 18.054-8.3194 34.842-69.267 38.424-139.49 0.80136-15.711 0.12445-30.722-1.5044-33.357-3.0058-4.8634-396.66-3.0656-404.61 1.8479-11.776 7.2777 3.5948 121.7 22.185 165.15 8.257 19.299 35.102 30.411 114.44 47.37 23.286 4.9772 43.23 9.9621 44.321 11.077 2.4496 2.5043 34.892-0.48964 58.715-5.4185zm-331.25 433.71c-22.874-19.247-9.6841-54.643 20.363-54.643 20.741 0 32.58 10.771 32.438 29.509-0.2354 30.921-29.415 44.811-52.801 25.134zm535.41-4.1169c-19.368-15.83-6.9263-54.072 17.592-54.072 31.519 0 45.96 28.896 24.944 49.912-12.155 12.155-30.552 13.954-42.536 4.1594zm-530.04-63.82c-24.005-116.23-23.071-204.55 2.257-213.38 32.797-11.433 51.304 10.579 47.488 56.481-2.5111 30.209-16.058 146.57-18.472 158.67-2.6134 13.096-28.505 11.628-31.273-1.7728zm549.26 3.6766c-3.9002-0.93812-8.2176-2.7569-9.5942-4.0417-2.2247-2.0763-12.476-82.192-18.731-146.39-5.4952-56.396 24.35-88.387 54.422-58.334 11.828 11.821 11.355 36.603-3.1176 163.3-3.8777 33.945-7.9518 48.464-13.353 47.588-1.394-0.22622-5.7256-1.1789-9.6259-2.117zm-556.84-233.78c-18.804-20.29-4.5289-54.44 22.757-54.44 16.134 0 25.05 5.6769 30.898 19.673 13.548 32.424-29.797 60.511-53.655 34.768zm545.3 1.4985c-11.452-5.5217-17.364-27.099-11.034-40.269 14.55-30.271 56.264-21.092 56.264 12.38 0 23.602-23.75 38.246-45.231 27.889zm-535.2-63.07c-22.003-8.8608-23.819-51.649-6.7723-159.51 5.0852-32.177 9.2459-58.903 9.2459-59.39 0-8.9968 27.921 1.0143 29.667 10.637 28.39 156.51 17.328 228.19-32.14 208.27zm528.83-12.23c-8.7914-8.7914-10.586-65.17-3.3692-105.85 1.102-6.2124 4.2322-30.809 6.956-54.659 5.6939-49.856 5.9814-50.597 19.634-50.597 11.425 0 9.9549-5.4128 17.813 65.595 2.1582 19.501 5.4172 47.09 7.242 61.308 10.128 78.91-13.084 119.4-48.276 84.206zm-535.38-219.81c-26.231-26.231 7.1912-67.251 40.683-49.932 11.409 5.8998 14.436 11.797 14.436 28.123 0 26.454-36.165 40.763-55.119 21.809zm535.4-7.0914c-18.306-18.306-4.6475-49.821 21.275-49.086 26.599 0.75398 39.329 27.625 22.95 48.447-10.071 12.803-31.748 13.116-44.225 0.63934zm-507.42-120.39c-20.743-9.314-18.475-37.41 3.574-44.268 6.69-2.0815 112.88-3.9174 265.26-4.5864l254.1-1.1156 9.1647 8.5959c11.261 10.562 11.569 18.409 1.1869 30.231l-7.9778 9.0841-122.33 1.699c-404.5 5.619-391.29 5.607-402.97 0.36z"/>
 </g>
</svg>
